<svg xmlns="http://www.w3.org/2000/svg" viewBox="0 0 600 600" preserveAspectRatio="xMidYMid slice">
<rect width="600" height="600" fill="#026E81"/>
<clipPath id="clip"><rect width="600" height="600"/></clipPath>
<g clip-path="url(#clip)">
<g stroke="#0099DD" stroke-width="0.6" opacity="0.09">
<line x1="0" y1="0" x2="0" y2="600"/>
<line x1="60" y1="0" x2="60" y2="600"/>
<line x1="120" y1="0" x2="120" y2="600"/>
<line x1="180" y1="0" x2="180" y2="600"/>
<line x1="240" y1="0" x2="240" y2="600"/>
<line x1="300" y1="0" x2="300" y2="600"/>
<line x1="360" y1="0" x2="360" y2="600"/>
<line x1="420" y1="0" x2="420" y2="600"/>
<line x1="480" y1="0" x2="480" y2="600"/>
<line x1="540" y1="0" x2="540" y2="600"/>
<line x1="600" y1="0" x2="600" y2="600"/>
<line x1="0" y1="0" x2="600" y2="0"/>
<line x1="0" y1="60" x2="600" y2="60"/>
<line x1="0" y1="120" x2="600" y2="120"/>
<line x1="0" y1="180" x2="600" y2="180"/>
<line x1="0" y1="240" x2="600" y2="240"/>
<line x1="0" y1="300" x2="600" y2="300"/>
<line x1="0" y1="360" x2="600" y2="360"/>
<line x1="0" y1="420" x2="600" y2="420"/>
<line x1="0" y1="480" x2="600" y2="480"/>
<line x1="0" y1="540" x2="600" y2="540"/>
<line x1="0" y1="600" x2="600" y2="600"/>
</g>
<g stroke="#A1C7E0" stroke-width="0.9" opacity="0.35">
<line x1="-11" y1="-21" x2="-1" y2="-3"/>
<line x1="-11" y1="-21" x2="94" y2="9"/>
<line x1="-1" y1="-3" x2="94" y2="9"/>
<line x1="-45" y1="279" x2="18" y2="278"/>
<line x1="-45" y1="279" x2="56" y2="182"/>
<line x1="-11" y1="579" x2="-1" y2="597"/>
<line x1="-11" y1="579" x2="94" y2="609"/>
<line x1="-1" y1="597" x2="94" y2="609"/>
<line x1="-96" y1="425" x2="-208" y2="369"/>
<line x1="-96" y1="425" x2="-222" y2="476"/>
<line x1="589" y1="-21" x2="599" y2="-3"/>
<line x1="589" y1="-21" x2="694" y2="9"/>
<line x1="264" y1="-95" x2="300" y2="-203"/>
<line x1="264" y1="-95" x2="378" y2="-124"/>
<line x1="599" y1="-3" x2="694" y2="9"/>
<line x1="271" y1="336" x2="305" y2="352"/>
<line x1="271" y1="336" x2="311" y2="384"/>
<line x1="555" y1="279" x2="618" y2="278"/>
<line x1="555" y1="279" x2="656" y2="182"/>
<line x1="305" y1="352" x2="311" y2="384"/>
<line x1="111" y1="307" x2="18" y2="278"/>
<line x1="111" y1="307" x2="56" y2="182"/>
<line x1="378" y1="476" x2="392" y2="369"/>
<line x1="378" y1="476" x2="300" y2="397"/>
<line x1="56" y1="182" x2="114" y2="145"/>
<line x1="56" y1="182" x2="18" y2="278"/>
<line x1="54" y1="486" x2="-11" y2="579"/>
<line x1="54" y1="486" x2="-1" y2="597"/>
<line x1="416" y1="25" x2="317" y2="36"/>
<line x1="416" y1="25" x2="378" y2="-124"/>
<line x1="589" y1="579" x2="599" y2="597"/>
<line x1="589" y1="579" x2="694" y2="609"/>
<line x1="392" y1="369" x2="311" y2="384"/>
<line x1="392" y1="369" x2="305" y2="352"/>
<line x1="94" y1="9" x2="173" y2="42"/>
<line x1="317" y1="36" x2="274" y2="167"/>
<line x1="114" y1="145" x2="189" y2="138"/>
<line x1="264" y1="505" x2="300" y2="397"/>
<line x1="264" y1="505" x2="378" y2="476"/>
<line x1="311" y1="384" x2="300" y2="397"/>
<line x1="300" y1="397" x2="305" y2="352"/>
<line x1="274" y1="167" x2="189" y2="138"/>
<line x1="599" y1="597" x2="694" y2="609"/>
<line x1="504" y1="425" x2="392" y2="369"/>
<line x1="504" y1="425" x2="378" y2="476"/>
<line x1="173" y1="42" x2="189" y2="138"/>
<line x1="416" y1="625" x2="317" y2="636"/>
<line x1="416" y1="625" x2="378" y2="476"/>
<line x1="94" y1="609" x2="173" y2="642"/>
<line x1="317" y1="636" x2="274" y2="767"/>
<line x1="173" y1="642" x2="189" y2="738"/>
<line x1="656" y1="182" x2="714" y2="145"/>
<line x1="656" y1="182" x2="618" y2="278"/>
<line x1="654" y1="486" x2="589" y2="579"/>
<line x1="654" y1="486" x2="599" y2="597"/>
<line x1="694" y1="9" x2="773" y2="42"/>
<line x1="618" y1="278" x2="711" y2="307"/>
<line x1="694" y1="609" x2="773" y2="642"/>
</g>
<g stroke="#00ABBD" stroke-width="0.8" stroke-dasharray="3 4" opacity="0.45" fill="none">
</g>
<circle cx="-1" cy="-3" r="3" fill="#00ABBD" opacity="0.78"/>
<circle cx="-11" cy="579" r="2.5" fill="#A1C7E0" opacity="0.78"/>
<circle cx="-1" cy="597" r="2.5" fill="#A1C7E0" opacity="0.78"/>
<circle cx="599" cy="-3" r="2.5" fill="#A1C7E0" opacity="0.78"/>
<circle cx="271" cy="336" r="4" fill="#A1C7E0" opacity="0.78"/>
<circle cx="555" cy="279" r="3" fill="#A1C7E0" opacity="0.78"/>
<circle cx="305" cy="352" r="2.5" fill="#A1C7E0" opacity="0.78"/>
<circle cx="111" cy="307" r="4" fill="#A1C7E0" opacity="0.78"/>
<circle cx="378" cy="476" r="3" fill="#A1C7E0" opacity="0.78"/>
<circle cx="56" cy="182" r="2" fill="#A1C7E0" opacity="0.78"/>
<circle cx="54" cy="486" r="3" fill="#A1C7E0" opacity="0.78"/>
<circle cx="416" cy="25" r="3.5" fill="#A1C7E0" opacity="0.78"/>
<circle cx="589" cy="579" r="3" fill="#00ABBD" opacity="0.78"/>
<circle cx="392" cy="369" r="2.5" fill="#00ABBD" opacity="0.78"/>
<circle cx="94" cy="9" r="4" fill="#A1C7E0" opacity="0.78"/>
<circle cx="317" cy="36" r="3.5" fill="#A1C7E0" opacity="0.78"/>
<circle cx="114" cy="145" r="3.5" fill="#A1C7E0" opacity="0.78"/>
<circle cx="18" cy="278" r="2" fill="#00ABBD" opacity="0.78"/>
<circle cx="264" cy="505" r="4" fill="#A1C7E0" opacity="0.78"/>
<circle cx="311" cy="384" r="3" fill="#A1C7E0" opacity="0.78"/>
<circle cx="300" cy="397" r="4" fill="#A1C7E0" opacity="0.78"/>
<circle cx="274" cy="167" r="2.5" fill="#00ABBD" opacity="0.78"/>
<circle cx="599" cy="597" r="3.5" fill="#A1C7E0" opacity="0.78"/>
<circle cx="504" cy="425" r="3" fill="#A1C7E0" opacity="0.78"/>
<circle cx="189" cy="138" r="4" fill="#00ABBD" opacity="0.78"/>
<circle cx="173" cy="42" r="3" fill="#00ABBD" opacity="0.78"/>
<circle cx="94" cy="609" r="4" fill="#00ABBD" opacity="0.78"/>
<circle cx="618" cy="278" r="2.5" fill="#A1C7E0" opacity="0.78"/>
<circle cx="134" cy="395" r="24" fill="none" stroke="#00ABBD" stroke-width="0.7" opacity="0.28"/>
<circle cx="134" cy="395" r="38" fill="none" stroke="#00ABBD" stroke-width="0.7" opacity="0.28"/>
<circle cx="134" cy="395" r="52" fill="none" stroke="#00ABBD" stroke-width="0.7" opacity="0.28"/>
<circle cx="439" cy="466" r="24" fill="none" stroke="#00ABBD" stroke-width="0.7" opacity="0.28"/>
<circle cx="439" cy="466" r="38" fill="none" stroke="#00ABBD" stroke-width="0.7" opacity="0.28"/>
<circle cx="439" cy="466" r="52" fill="none" stroke="#00ABBD" stroke-width="0.7" opacity="0.28"/>
<circle cx="413" cy="349" r="24" fill="none" stroke="#00ABBD" stroke-width="0.7" opacity="0.28"/>
<circle cx="413" cy="349" r="38" fill="none" stroke="#00ABBD" stroke-width="0.7" opacity="0.28"/>
<circle cx="413" cy="349" r="52" fill="none" stroke="#00ABBD" stroke-width="0.7" opacity="0.28"/>
<rect x="248" y="46" width="11" height="11" fill="none" stroke="#A1C7E0" stroke-width="0.7" opacity="0.45" transform="rotate(4 253 51)"/>
<rect x="198" y="280" width="7" height="7" fill="none" stroke="#A1C7E0" stroke-width="0.7" opacity="0.45" transform="rotate(7 201 284)"/>
<rect x="186" y="412" width="8" height="8" fill="none" stroke="#A1C7E0" stroke-width="0.7" opacity="0.45" transform="rotate(14 190 416)"/>
<rect x="380" y="511" width="12" height="12" fill="none" stroke="#A1C7E0" stroke-width="0.7" opacity="0.45" transform="rotate(45 386 517)"/>
<rect x="322" y="436" width="9" height="9" fill="none" stroke="#A1C7E0" stroke-width="0.7" opacity="0.45" transform="rotate(44 327 441)"/>
<circle cx="317" cy="36" r="1.8" fill="#FF9933" opacity="0.9"/>
<circle cx="311" cy="384" r="1.8" fill="#FF9933" opacity="0.9"/>
<circle cx="311" cy="384" r="1.8" fill="#FF9933" opacity="0.9"/>
<circle cx="392" cy="369" r="1.8" fill="#FF9933" opacity="0.9"/>
</g>
</svg>